{
    "asset": {
        "version": "2.0",
        "generator": "Open Asset Import Library (assimp v5.2.cf7d3637)"
    },
    "extensionsUsed": [
        "KHR_materials_volume",
        "KHR_materials_ior",
        "FB_ngon_encoding"
    ],
    "accessors": [
        {
            "bufferView": 0,
            "byteOffset": 0,
            "componentType": 5126,
            "count": 37296,
            "type": "VEC3",
            "max": [
                17.169099807739259,
                15.75,
                10.0
            ],
            "min": [
                -15.0,
                0.0,
                -10.0
            ]
        },
        {
            "bufferView": 1,
            "byteOffset": 0,
            "componentType": 5126,
            "count": 37296,
            "type": "VEC3",
            "max": [
                0.9998391270637512,
                1.0,
                1.0
            ],
            "min": [
                -0.9998948574066162,
                -1.0,
                -1.0
            ]
        },
        {
            "bufferView": 2,
            "byteOffset": 0,
            "componentType": 5126,
            "count": 37296,
            "type": "VEC2",
            "max": [
                2.0,
                1.0
            ],
            "min": [
                -0.0,
                -1.0
            ]
        },
        {
            "bufferView": 3,
            "byteOffset": 0,
            "componentType": 5125,
            "count": 37296,
            "type": "SCALAR",
            "max": [
                37295
            ],
            "min": [
                0
            ]
        }
    ],
    "buffers": [
        {
            "byteLength": 1342656,
            "uri": "teapot.bin"
        }
    ],
    "bufferViews": [
        {
            "buffer": 0,
            "byteOffset": 0,
            "byteLength": 447552,
            "target": 34962
        },
        {
            "buffer": 0,
            "byteOffset": 447552,
            "byteLength": 447552,
            "target": 34962
        },
        {
            "buffer": 0,
            "byteOffset": 895104,
            "byteLength": 298368,
            "target": 34962
        },
        {
            "buffer": 0,
            "byteOffset": 1193472,
            "byteLength": 149184,
            "target": 34963
        }
    ],
    "materials": [
        {
            "name": "DefaultMaterial",
            "pbrMetallicRoughness": {
                "baseColorFactor": [
                    0.6000000238418579,
                    0.6000000238418579,
                    0.6000000238418579,
                    1.0
                ],
                "metallicFactor": 0.0
            },
            "extensions": {
                "KHR_materials_ior": {
                    "ior": 1.0
                }
            }
        }
    ],
    "meshes": [
        {
            "name": "Teapot001",
            "primitives": [
                {
                    "extensions": {
                        "FB_ngon_encoding": {}
                    },
                    "mode": 4,
                    "material": 0,
                    "indices": 3,
                    "attributes": {
                        "POSITION": 0,
                        "NORMAL": 1,
                        "TEXCOORD_0": 2
                    }
                }
            ]
        }
    ],
    "nodes": [
        {
            "name": "teapot.obj",
            "children": [
                1
            ]
        },
        {
            "name": "Teapot001",
            "mesh": 0
        }
    ],
    "scenes": [
        {
            "nodes": [
                0
            ]
        }
    ],
    "scene": 0
}